<svg xmlns="http://www.w3.org/2000/svg" version="1.1" xmlns:xlink="http://www.w3.org/1999/xlink" width="1500" height="1500" viewBox="0 0 1500 1500"><rect width="1500" height="1500" x="0" y="0" id="background" stroke="transparent" fill="#ffffff"></rect><svg xml:space="preserve" width="1000" height="1000" data-version="2" data-id="lg_uHyKzGvgeyovY30xiN" viewBox="0 0 561 413" x="250" y="250"><rect width="100%" height="100%" fill="transparent"></rect><path d="M34.99 6.764h38.59l29.52 181.3H74.61l-5.18-36v.51H37.06l-5.18 35.49H5.46Zm31.08 121.21-12.7-89.61h-.51l-12.44 89.61Z" paint-order="stroke"></path><rect width="97.64" height="181.3" x="-48.82" y="-90.65" fill="none" rx="0" ry="0" transform="translate(54.78 97.91)"></rect><path d="M116.83 6.764h42.22q22.01 0 32.11 10.23 10.1 10.23 10.1 31.47v11.13q0 28.23-18.64 35.75v.51q10.36 3.11 14.63 12.69 4.27 9.59 4.27 25.65v31.85q0 7.77.52 12.56.52 4.8 2.59 9.46h-29.01q-1.55-4.41-2.07-8.29-.52-3.89-.52-13.99v-33.15q0-12.43-4.01-17.35-4.02-4.92-13.86-4.92h-9.84v77.7h-28.49Zm38.85 77.7q8.55 0 12.82-4.41 4.27-4.4 4.27-14.76v-13.98q0-9.85-3.49-14.25-3.5-4.4-11.01-4.4h-12.95v51.8Z" paint-order="stroke"></path><rect width="87.8" height="181.3" x="-43.9" y="-90.65" fill="none" rx="0" ry="0" transform="translate(161.23 97.91)"></rect><path d="M221.21 6.764h77.7v25.9H249.7v47.91h39.11v25.9H249.7v55.69h49.21v25.9h-77.7Z" paint-order="stroke"></path><rect width="77.7" height="181.3" x="-38.85" y="-90.65" fill="none" rx="0" ry="0" transform="translate(260.56 97.91)"></rect><path d="M315.22 6.764h35.75l27.71 108.52h.52V6.764h25.38v181.3h-29.27l-34.19-132.35h-.51v132.35h-25.39Z" paint-order="stroke"></path><rect width="89.36" height="181.3" x="-44.68" y="-90.65" fill="none" rx="0" ry="0" transform="translate(360.4 97.91)"></rect><path d="M425.82 160.604h27.45v27.46h-27.45Z" paint-order="stroke"></path><rect width="27.45" height="27.46" x="-13.72" y="-13.73" fill="none" rx="0" ry="0" transform="translate(440.05 174.83)"></rect><path d="M511.55 190.654q-20.72 0-31.34-11.79-10.62-11.78-10.62-33.8v-10.36h26.93v12.44q0 17.61 14.77 17.61 7.25 0 11-4.28 3.76-4.27 3.76-13.85 0-11.4-5.18-20.08-5.18-8.67-19.17-20.84-17.61-15.54-24.6-28.11-6.99-12.56-6.99-28.36 0-21.49 10.87-33.28 10.88-11.78 31.6-11.78 20.46 0 30.95 11.78 10.49 11.79 10.49 33.8v7.51h-26.93v-9.32q0-9.33-3.63-13.6t-10.62-4.27q-14.24 0-14.24 17.35 0 9.84 5.3 18.39 5.31 8.55 19.3 20.72 17.87 15.54 24.61 28.23 6.73 12.69 6.73 29.79 0 22.27-11.01 34.18-11.01 11.92-31.98 11.92" paint-order="stroke"></path><rect width="84.95" height="186.48" x="-42.48" y="-93.24" fill="none" rx="0" ry="0" transform="translate(512.57 97.91)"></rect><path fill="#dadada" d="M34.99 406.236h38.59l29.52-181.3H74.61l-5.18 36v-.52H37.06l-5.18-35.48H5.46Zm31.08-121.21-12.7 89.61h-.51l-12.44-89.61Z" paint-order="stroke"></path><rect width="97.64" height="181.3" x="-48.82" y="-90.65" fill="none" rx="0" ry="0" transform="matrix(1 0 0 -1 54.78 315.09)"></rect><path fill="#dadada" d="M116.83 406.236h42.22q22.01 0 32.11-10.23 10.1-10.23 10.1-31.47v-11.13q0-28.24-18.64-35.75v-.51q10.36-3.11 14.63-12.7 4.27-9.58 4.27-25.64v-31.85q0-7.77.52-12.56.52-4.8 2.59-9.46h-29.01q-1.55 4.4-2.07 8.29-.52 3.88-.52 13.99v33.15q0 12.43-4.01 17.35-4.02 4.92-13.86 4.92h-9.84v-77.7h-28.49Zm38.85-77.7q8.55 0 12.82 4.4 4.27 4.41 4.27 14.77v13.98q0 9.85-3.49 14.25-3.5 4.4-11.01 4.4h-12.95v-51.8Z" paint-order="stroke"></path><rect width="87.8" height="181.3" x="-43.9" y="-90.65" fill="none" rx="0" ry="0" transform="matrix(1 0 0 -1 161.23 315.09)"></rect><path fill="#dadada" d="M221.21 406.236h77.7v-25.9H249.7v-47.91h39.11v-25.9H249.7v-55.69h49.21v-25.9h-77.7Z" paint-order="stroke"></path><rect width="77.7" height="181.3" x="-38.85" y="-90.65" fill="none" rx="0" ry="0" transform="matrix(1 0 0 -1 260.56 315.09)"></rect><path fill="#dadada" d="M315.22 406.236h35.75l27.71-108.52h.52v108.52h25.38v-181.3h-29.27l-34.19 132.35h-.51v-132.35h-25.39Z" paint-order="stroke"></path><rect width="89.36" height="181.3" x="-44.68" y="-90.65" fill="none" rx="0" ry="0" transform="matrix(1 0 0 -1 360.4 315.09)"></rect><path fill="#dadada" d="M425.82 252.396h27.45v-27.46h-27.45Z" paint-order="stroke"></path><rect width="27.45" height="27.46" x="-13.72" y="-13.73" fill="none" rx="0" ry="0" transform="matrix(1 0 0 -1 440.05 238.17)"></rect><path fill="#dadada" d="M511.55 222.346q-20.72 0-31.34 11.79-10.62 11.78-10.62 33.8v10.36h26.93v-12.44q0-17.61 14.77-17.61 7.25 0 11 4.28 3.76 4.27 3.76 13.85 0 11.4-5.18 20.07-5.18 8.68-19.17 20.85-17.61 15.54-24.6 28.11-6.99 12.56-6.99 28.36 0 21.49 10.87 33.28 10.88 11.78 31.6 11.78 20.46 0 30.95-11.78 10.49-11.79 10.49-33.8v-7.51h-26.93v9.32q0 9.32-3.63 13.6-3.63 4.27-10.62 4.27-14.24 0-14.24-17.35 0-9.84 5.3-18.39 5.31-8.55 19.3-20.72 17.87-15.54 24.61-28.23 6.73-12.69 6.73-29.79 0-22.27-11.01-34.18-11.01-11.92-31.98-11.92" paint-order="stroke"></path><rect width="84.95" height="186.48" x="-42.48" y="-93.24" fill="none" rx="0" ry="0" transform="matrix(1 0 0 -1 512.57 315.09)"></rect></svg></svg>